<svg xmlns="http://www.w3.org/2000/svg" xmlns:xlink="http://www.w3.org/1999/xlink" width="500" zoomAndPan="magnify" viewBox="0 0 375 374.999991" height="500" preserveAspectRatio="xMidYMid meet" version="1.0"><defs><g/></defs><g fill="#ffffff" fill-opacity="1"><g transform="translate(81.970688, 234.664382)"><g><path d="M 9.90625 -102.921875 C 12.570312 -105.585938 15.753906 -106.921875 19.453125 -106.921875 C 23.148438 -106.921875 26.328125 -105.585938 28.984375 -102.921875 C 31.648438 -100.265625 32.984375 -97.085938 32.984375 -93.390625 C 32.984375 -89.703125 31.648438 -86.523438 28.984375 -83.859375 C 26.328125 -81.203125 23.148438 -79.875 19.453125 -79.875 C 15.753906 -79.875 12.570312 -81.203125 9.90625 -83.859375 C 7.25 -86.523438 5.921875 -89.703125 5.921875 -93.390625 C 5.921875 -97.085938 7.25 -100.265625 9.90625 -102.921875 Z M 7.734375 -66.09375 L 7.734375 0 L 30.53125 0 L 30.53125 -66.09375 Z M 7.734375 -66.09375 "/></g></g></g><g fill="#ffffff" fill-opacity="1"><g transform="translate(108.763477, 234.664382)"><g/></g></g><g fill="#ffffff" fill-opacity="1"><g transform="translate(131.820576, 234.664382)"><g><path d="M 11.59375 -66.09375 L 11.59375 -80.125 C 11.675781 -90.007812 13.992188 -97.910156 18.546875 -103.828125 C 23.097656 -109.753906 29.410156 -112.71875 37.484375 -112.71875 C 40.921875 -112.71875 44.207031 -112.222656 47.34375 -111.234375 C 50.476562 -110.253906 52.734375 -109.25 54.109375 -108.21875 L 56.296875 -106.796875 L 48.3125 -90.6875 C 46.25 -91.894531 43.972656 -92.5 41.484375 -92.5 C 38.648438 -92.5 36.757812 -91.53125 35.8125 -89.59375 C 34.863281 -87.664062 34.390625 -84.296875 34.390625 -79.484375 L 34.390625 -66.09375 L 49.59375 -66.09375 L 49.59375 -48.703125 L 34.390625 -48.703125 L 34.390625 0 L 11.59375 0 L 11.59375 -48.703125 L 2.0625 -48.703125 L 2.0625 -66.09375 Z M 11.59375 -66.09375 "/></g></g></g><g fill="#ffffff" fill-opacity="1"><g transform="translate(168.017009, 234.664382)"><g/></g></g><g fill="#ffffff" fill-opacity="1"><g transform="translate(191.074112, 234.664382)"><g><path d="M 9.90625 -102.921875 C 12.570312 -105.585938 15.753906 -106.921875 19.453125 -106.921875 C 23.148438 -106.921875 26.328125 -105.585938 28.984375 -102.921875 C 31.648438 -100.265625 32.984375 -97.085938 32.984375 -93.390625 C 32.984375 -89.703125 31.648438 -86.523438 28.984375 -83.859375 C 26.328125 -81.203125 23.148438 -79.875 19.453125 -79.875 C 15.753906 -79.875 12.570312 -81.203125 9.90625 -83.859375 C 7.25 -86.523438 5.921875 -89.703125 5.921875 -93.390625 C 5.921875 -97.085938 7.25 -100.265625 9.90625 -102.921875 Z M 7.734375 -66.09375 L 7.734375 0 L 30.53125 0 L 30.53125 -66.09375 Z M 7.734375 -66.09375 "/></g></g></g><g fill="#ffffff" fill-opacity="1"><g transform="translate(217.866904, 234.664382)"><g/></g></g><g fill="#ffffff" fill-opacity="1"><g transform="translate(240.924007, 234.664382)"><g><path d="M 11.59375 -66.09375 L 11.59375 -90.6875 L 34.390625 -90.6875 L 34.390625 -66.09375 L 48.3125 -66.09375 L 48.3125 -48.703125 L 34.390625 -48.703125 L 34.390625 -27.703125 C 34.390625 -21.597656 36.109375 -18.546875 39.546875 -18.546875 C 40.410156 -18.546875 41.3125 -18.71875 42.25 -19.0625 C 43.195312 -19.40625 43.929688 -19.75 44.453125 -20.09375 L 45.21875 -20.609375 L 50.890625 -2.1875 C 45.992188 0.5625 40.410156 1.9375 34.140625 1.9375 C 29.847656 1.9375 26.15625 1.1875 23.0625 -0.3125 C 19.96875 -1.820312 17.625 -3.84375 16.03125 -6.375 C 14.445312 -8.90625 13.3125 -11.566406 12.625 -14.359375 C 11.9375 -17.148438 11.59375 -20.132812 11.59375 -23.3125 L 11.59375 -48.703125 L 2.0625 -48.703125 L 2.0625 -66.09375 Z M 11.59375 -66.09375 "/></g></g></g><g fill="#ffffff" fill-opacity="1"><g transform="translate(279.708382, 234.664382)"><g/></g></g></svg>